<?xml version="1.0" standalone="no"?>
<!DOCTYPE svg PUBLIC "-//W3C//DTD SVG 20010904//EN"
 "http://www.w3.org/TR/2001/REC-SVG-20010904/DTD/svg10.dtd">
<svg version="1.0" xmlns="http://www.w3.org/2000/svg"
 width="300.000000pt" height="300.000000pt" viewBox="0 0 300.000000 300.000000"
 preserveAspectRatio="xMidYMid meet">
<metadata>
Created by potrace 1.14, written by Peter Selinger 2001-2017
</metadata>
<g transform="translate(0.000000,300.000000) scale(0.100000,-0.100000)"
fill="#000000" stroke="none">
<path d="M1470 2500 l-45 -5 0 -460 0 -460 78 -3 77 -3 1 218 c1 120 1 249 1
287 -1 37 1 66 3 64 5 -5 105 -206 216 -436 l64 -133 74 3 c53 2 76 7 82 18 9
16 108 227 155 329 16 36 45 99 66 140 l36 76 -1 -283 -2 -282 78 0 c54 0 77
4 78 13 1 6 2 216 3 465 l1 452 -80 0 -80 0 -27 -57 c-15 -32 -52 -111 -82
-176 -31 -65 -56 -120 -56 -121 0 -2 -33 -73 -74 -157 -40 -85 -76 -164 -80
-176 -4 -13 -11 -23 -15 -23 -9 0 -15 12 -226 445 l-132 270 -34 0 c-19 0 -54
-2 -79 -5z"/>
<path d="M570 2035 l0 -465 80 0 80 0 0 194 0 193 189 0 c166 0 190 -2 193
-16 2 -9 3 -96 3 -193 l-1 -178 78 0 78 0 0 465 0 465 -78 0 -78 0 0 -186 c1
-113 -3 -189 -9 -193 -5 -4 -91 -7 -190 -7 l-180 1 -3 193 -2 192 -80 0 -80 0
0 -465z"/>
<path d="M1044 1449 c-39 -4 -82 -10 -95 -14 -109 -32 -224 -128 -271 -225
-54 -111 -68 -246 -38 -370 34 -141 149 -269 281 -314 46 -16 147 -34 170 -31
8 1 39 5 69 9 86 11 232 83 247 122 3 7 -17 36 -46 66 -47 49 -51 51 -68 35
-10 -9 -45 -28 -78 -44 -155 -71 -331 -7 -403 147 -22 46 -26 70 -26 145 0 76
4 99 26 146 52 113 142 171 268 173 82 1 120 -11 189 -57 l43 -30 54 56 54 55
-38 29 c-77 60 -138 88 -212 99 -19 3 -39 6 -45 7 -5 2 -42 0 -81 -4z"/>
<path d="M1797 1448 c-157 -21 -288 -156 -301 -311 -19 -241 217 -429 447
-356 150 47 242 175 241 336 -1 60 -6 82 -32 136 -32 65 -97 134 -153 163 -52
26 -140 41 -202 32z m96 -159 c107 -29 165 -152 122 -256 -57 -136 -251 -152
-333 -27 -64 98 -17 240 93 279 49 17 69 18 118 4z"/>
<path d="M1534 661 c-2 -2 -4 -37 -4 -78 l0 -73 307 2 308 3 0 75 0 75 -303 0
c-167 0 -305 -2 -308 -4z"/>
<path d="M2289 657 c-44 -34 -50 -93 -14 -127 55 -51 139 -18 139 55 0 64 -77
109 -125 72z"/>
</g>
</svg>
